<mxfile host="app.diagrams.net" modified="2024-03-31T05:17:43.489Z" agent="Mozilla/5.0 (Windows NT 10.0; Win64; x64; rv:125.0) Gecko/20100101 Firefox/125.0" version="24.2.1" etag="drqYPgUuCYKKr62u3aY8" type="github">
  <diagram name="Page-1" id="3nIorE2L9C88fY-8Ex0J">
    <mxGraphModel>
      <root>
        <mxCell id="0" />
        <mxCell id="1" parent="0" />
      </root>
    </mxGraphModel>
  </diagram>
</mxfile>
